<?xml version="1.0" encoding="UTF-8"?>
<svg width="1200pt" height="1200pt" version="1.1" viewBox="0 0 1200 1200" xmlns="http://www.w3.org/2000/svg">
 <path d="m471.61 702.83h256.79v51.277h-256.79z" fill="#fff"/>
 <path d="m574.16 651.42v-51.277h51.406v51.277h154.24v-102.83h-359.62v102.83z" fill="#fff"/>
 <path d="m728.4 445.89v51.277h205.37v51.422h51.273v-102.7z" fill="#fff"/>
 <path d="m831.09 959.34v51.406h153.96v-102.68h-51.273v51.277z" fill="#fff"/>
 <path d="m882.36 805.38h51.406v102.68h-51.406z" fill="#fff"/>
 <path d="m882.36 548.59h51.406v51.551h-51.406z" fill="#fff"/>
 <path d="m831.09 702.83h51.277v102.55h-51.277z" fill="#fff"/>
 <path d="m831.09 600.14h51.277v51.277h-51.277z" fill="#fff"/>
 <path d="m728.4 908.06h102.68v51.277h-102.68z" fill="#fff"/>
 <path d="m779.81 651.42h51.277v51.406h-51.277z" fill="#fff"/>
 <path d="m625.57 856.79h102.83v51.277h-102.83z" fill="#fff"/>
 <path d="m677.12 343.21h51.277v102.68h-51.277z" fill="#fff"/>
 <path d="m625.57 240.66h51.551v102.55h-51.551z" fill="#fff"/>
 <path d="m574.16 805.38h51.406v51.406h-51.406z" fill="#fff"/>
 <path d="m574.16 189.25h51.406v51.406h-51.406z" fill="#fff"/>
 <path d="m522.89 240.66h51.277v102.55h-51.277z" fill="#fff"/>
 <path d="m471.61 856.79h102.55v51.277h-102.55z" fill="#fff"/>
 <path d="m471.61 343.21h51.277v102.68h-51.277z" fill="#fff"/>
 <path d="m368.93 908.06h102.68v51.277h-102.68z" fill="#fff"/>
 <path d="m368.93 651.42h51.266v51.406h-51.266z" fill="#fff"/>
 <path d="m317.65 702.83h51.277v102.55h-51.277z" fill="#fff"/>
 <path d="m317.65 600.14h51.277v51.277h-51.277z" fill="#fff"/>
 <path d="m266.23 959.34v-51.277h-51.273v102.68h153.97v-51.406z" fill="#fff"/>
 <path d="m266.23 805.38h51.422v102.68h-51.422z" fill="#fff"/>
 <path d="m266.23 548.59h51.422v51.551h-51.422z" fill="#fff"/>
 <path d="m471.61 497.17v-51.277h-256.66v102.7h51.273v-51.422z" fill="#fff"/>
</svg>
